<svg xmlns="http://www.w3.org/2000/svg" width="128" height="128" viewBox="0 0 128 128">
  <defs>
    <!-- background -->
    <radialGradient id="bg" cx="50%" cy="40%" r="80%">
      <stop offset="0%" stop-color="#1a1e27"/>
      <stop offset="70%" stop-color="#0b0d12"/>
      <stop offset="100%" stop-color="#05060a"/>
    </radialGradient>

    <!-- metallic rim -->
    <radialGradient id="rim" cx="35%" cy="30%" r="80%">
      <stop offset="0%" stop-color="#ffffff"/>
      <stop offset="20%" stop-color="#d9dbe0"/>
      <stop offset="55%" stop-color="#8b8f99"/>
      <stop offset="100%" stop-color="#2b2f38"/>
    </radialGradient>

    <!-- lens glass -->
    <radialGradient id="glass" cx="40%" cy="35%" r="75%">
      <stop offset="0%" stop-color="#ffffff" stop-opacity="0.95"/>
      <stop offset="28%" stop-color="#eaf1ff" stop-opacity="0.7"/>
      <stop offset="55%" stop-color="#7fd0ff" stop-opacity="0.25"/>
      <stop offset="78%" stop-color="#2a6cff" stop-opacity="0.12"/>
      <stop offset="100%" stop-color="#000000" stop-opacity="0.25"/>
    </radialGradient>

    <!-- subtle inner shadow -->
    <filter id="innerShadow" x="-30%" y="-30%" width="160%" height="160%">
      <feOffset dx="0" dy="2"/>
      <feGaussianBlur stdDeviation="3" result="blur"/>
      <feComposite in="blur" in2="SourceAlpha" operator="out" result="shadow"/>
      <feColorMatrix in="shadow" type="matrix"
        values="0 0 0 0 0
                0 0 0 0 0
                0 0 0 0 0
                0 0 0 .55 0" />
      <feComposite in="SourceGraphic" operator="over"/>
    </filter>

    <!-- drop shadow -->
    <filter id="drop" x="-30%" y="-30%" width="160%" height="160%">
      <feDropShadow dx="0" dy="4" stdDeviation="4" flood-color="#000" flood-opacity="0.45"/>
    </filter>

    <!-- chromatic aberration colors -->
    <linearGradient id="rBand" x1="0" y1="0" x2="1" y2="0">
      <stop offset="0%" stop-color="#ff3b3b" stop-opacity="0"/>
      <stop offset="25%" stop-color="#ff3b3b" stop-opacity="0.85"/>
      <stop offset="100%" stop-color="#ff3b3b" stop-opacity="0"/>
    </linearGradient>
    <linearGradient id="gBand" x1="0" y1="0" x2="1" y2="0">
      <stop offset="0%" stop-color="#35ff7a" stop-opacity="0"/>
      <stop offset="25%" stop-color="#35ff7a" stop-opacity="0.85"/>
      <stop offset="100%" stop-color="#35ff7a" stop-opacity="0"/>
    </linearGradient>
    <linearGradient id="bBand" x1="0" y1="0" x2="1" y2="0">
      <stop offset="0%" stop-color="#3aa0ff" stop-opacity="0"/>
      <stop offset="25%" stop-color="#3aa0ff" stop-opacity="0.85"/>
      <stop offset="100%" stop-color="#3aa0ff" stop-opacity="0"/>
    </linearGradient>

    <!-- glossy highlight -->
    <linearGradient id="gloss" x1="0" y1="0" x2="1" y2="1">
      <stop offset="0%" stop-color="#fff" stop-opacity="0.85"/>
      <stop offset="40%" stop-color="#fff" stop-opacity="0.12"/>
      <stop offset="100%" stop-color="#fff" stop-opacity="0"/>
    </linearGradient>

    <!-- glow blur for bands -->
    <filter id="bandGlow" x="-40%" y="-40%" width="180%" height="180%">
      <feGaussianBlur stdDeviation="1.6"/>
    </filter>

    <!-- soft bloom for lens -->
    <filter id="bloom" x="-50%" y="-50%" width="200%" height="200%">
      <feGaussianBlur stdDeviation="2.2" result="b"/>
      <feColorMatrix in="b" type="matrix"
        values="1 0 0 0 0
                0 1 0 0 0
                0 0 1 0 0
                0 0 0 .65 0"/>
      <feComposite in2="SourceGraphic" operator="over"/>
    </filter>
  </defs>

  <!-- base plate -->
  <g filter="url(#drop)">
    <rect x="14" y="14" width="100" height="100" rx="26" fill="url(#bg)"/>
    <rect x="14" y="14" width="100" height="100" rx="26" fill="#fff" opacity="0.03"/>

    <!-- chromatic bands (slightly offset + skewed) -->
    <g opacity="0.95">
      <!-- red -->
      <path d="M10 74 C36 62, 58 58, 118 44
               C92 54, 64 62, 14 86 Z"
            fill="url(#rBand)" filter="url(#bandGlow)"/>
      <!-- green -->
      <path d="M10 78 C36 66, 58 62, 118 48
               C92 58, 64 66, 14 90 Z"
            fill="url(#gBand)" filter="url(#bandGlow)"/>
      <!-- blue -->
      <path d="M10 82 C36 70, 58 66, 118 52
               C92 62, 64 70, 14 94 Z"
            fill="url(#bBand)" filter="url(#bandGlow)"/>
    </g>

    <!-- lens rim -->
    <g filter="url(#innerShadow)">
      <circle cx="64" cy="64" r="30" fill="url(#rim)"/>
      <circle cx="64" cy="64" r="26" fill="#0a0c12" opacity="0.85"/>
      <circle cx="64" cy="64" r="24" fill="url(#glass)" filter="url(#bloom)"/>

      <!-- inner ring -->
      <circle cx="64" cy="64" r="18" fill="#000" opacity="0.18"/>
      <circle cx="64" cy="64" r="17" fill="#fff" opacity="0.06"/>

      <!-- central white lens core -->
      <radialGradient id="core" cx="40%" cy="35%" r="65%">
        <stop offset="0%" stop-color="#ffffff" stop-opacity="1"/>
        <stop offset="55%" stop-color="#ffffff" stop-opacity="0.55"/>
        <stop offset="100%" stop-color="#ffffff" stop-opacity="0"/>
      </radialGradient>
      <circle cx="64" cy="64" r="14" fill="url(#core)"/>

      <!-- chromatic edge inside lens (tiny, for the vibe) -->
      <circle cx="63" cy="63" r="23" fill="none" stroke="#ff3b3b" stroke-opacity="0.18" stroke-width="2"/>
      <circle cx="65" cy="64" r="23" fill="none" stroke="#35ff7a" stroke-opacity="0.14" stroke-width="2"/>
      <circle cx="64" cy="65" r="23" fill="none" stroke="#3aa0ff" stroke-opacity="0.16" stroke-width="2"/>

      <!-- glossy highlight -->
      <path d="M44 52 C52 40, 78 38, 88 54
               C74 50, 60 52, 44 58 Z"
            fill="url(#gloss)" opacity="0.8"/>
      <path d="M50 80 C56 88, 70 90, 80 84
               C72 88, 58 86, 50 80 Z"
            fill="#fff" opacity="0.06"/>
    </g>

    <!-- tiny corner spec -->
    <path d="M26 32 C34 22, 50 20, 64 22
             C48 26, 36 32, 28 40 Z"
          fill="#fff" opacity="0.08"/>
  </g>
</svg>
